<?xml version="1.0" encoding="UTF-8" standalone="no"?>
<!-- Created with Inkscape (http://www.inkscape.org/) -->

<svg
   width="435.07318mm"
   height="435.07318mm"
   viewBox="0 0 435.07318 435.07318"
   version="1.1"
   id="svg5"
   inkscape:version="1.2.2 (732a01da63, 2022-12-09)"
   sodipodi:docname="background_dark.svg"
   xmlns:inkscape="http://www.inkscape.org/namespaces/inkscape"
   xmlns:sodipodi="http://sodipodi.sourceforge.net/DTD/sodipodi-0.dtd"
   xmlns="http://www.w3.org/2000/svg"
   xmlns:svg="http://www.w3.org/2000/svg">
  <sodipodi:namedview
     id="namedview7"
     pagecolor="#505050"
     bordercolor="#eeeeee"
     borderopacity="1"
     inkscape:showpageshadow="0"
     inkscape:pageopacity="0"
     inkscape:pagecheckerboard="0"
     inkscape:deskcolor="#505050"
     inkscape:document-units="mm"
     showgrid="false"
     inkscape:zoom="0.26362494"
     inkscape:cx="-87.245159"
     inkscape:cy="675.20166"
     inkscape:window-width="1920"
     inkscape:window-height="1017"
     inkscape:window-x="1592"
     inkscape:window-y="-8"
     inkscape:window-maximized="1"
     inkscape:current-layer="layer1" />
  <defs
     id="defs2" />
  <g
     inkscape:label="Layer 1"
     inkscape:groupmode="layer"
     id="layer1"
     transform="translate(-87.991012,628.10533)">
    <g
       id="g2741"
       transform="translate(-41.40135,-681.72076)">
      <rect
         style="fill:#000000;stroke:none;stroke-width:0.259628"
         id="rect2512-9"
         width="435.07318"
         height="435.07321"
         x="129.39236"
         y="53.615406" />
      <path
         id="path1270-6"
         style="fill:#1a1a1a;stroke:none;stroke-width:2.39009"
         d="m 140.31779,53.615431 -10.92543,10.92543 v 15.14378 l 26.06921,-26.06921 z m 36.38486,0 -47.31029,47.310289 v 12.49536 l 59.80565,-59.805649 z m 42.98032,0 -90.29061,90.290609 V 155.4795 L 231.25643,53.615431 Z m 16.37213,0 -106.66274,106.662739 v 30.97589 L 267.03099,53.615431 Z m 39.63634,0 -146.29908,146.299079 v 9.59166 L 285.2831,53.615431 Z m 35.14049,0 L 129.39236,235.055 v 18.8867 L 329.71864,53.615431 Z m 56.10407,0 -237.54364,237.543639 v 14.12007 L 381.05607,53.615431 Z m 30.73094,0 -268.27458,268.274579 v 8.08116 L 405.74862,53.615431 Z m 35.79627,0 -304.07085,304.070849 v 8.53177 L 441.99499,53.615431 Z m 20.4773,0 -324.54815,324.548149 v 6.95771 L 460.89822,53.615431 Z m 23.32467,0 -347.87282,347.872819 v 22.85856 L 500.12374,53.615431 Z m 31.4384,0 -379.31122,379.310699 v 27.62932 L 536.33238,53.615431 Z m 52.56991,0 -431.88113,431.881129 v 2.69028 L 563.96377,53.615431 Z m 3.19206,10.92543 -424.14828,424.147749 h 15.1443 L 564.46555,79.684641 Z m 0,36.384859 -387.7629,387.76289 h 12.49536 L 564.46555,113.42108 Z m 0,42.98032 -344.78258,344.78257 h 11.57346 L 564.46555,155.4795 Z m 0,16.37213 -328.41045,328.41044 h 30.97589 L 564.46555,191.25406 Z m 0,39.63634 -288.77411,288.7741 h 9.59166 L 564.46555,209.50617 Z m 0,35.14049 -253.63362,253.63361 h 18.88671 L 564.46555,253.9417 Z m 0,56.10407 L 366.936,488.68861 h 14.12007 L 564.46555,305.27914 Z m 0,30.73094 -166.79861,166.7986 h 8.08116 L 564.46555,329.97117 Z m 0,35.79627 -131.00234,131.00233 h 8.53178 L 564.46555,366.21805 Z m 0,20.4773 -110.52504,110.52503 h 6.95771 L 564.46555,385.12129 Z m 0,23.32467 -87.20037,87.20036 h 22.85856 l 64.34181,-64.3418 z m 0,31.43788 -55.76249,55.76248 h 27.62932 l 28.13317,-28.13316 z m 0,52.57043 -3.19206,3.19205 h 2.69028 l 0.50178,-0.50177 z"
         inkscape:export-filename="background.png"
         inkscape:export-xdpi="96"
         inkscape:export-ydpi="96" />
    </g>
  </g>
</svg>
